<svg xmlns="http://www.w3.org/2000/svg" viewBox="0 0 560 360" role="img" aria-label="Feature screenshot placeholder">
  <defs>
    <linearGradient id="bg" x1="0" y1="0" x2="1" y2="1">
      <stop offset="0" stop-color="#e0f2fe"/>
      <stop offset="1" stop-color="#f6f7fb"/>
    </linearGradient>
  </defs>
  <rect width="560" height="360" rx="28" fill="url(#bg)"/>
  <rect x="34" y="34" width="280" height="40" rx="20" fill="rgba(0,102,204,0.16)"/>
  <rect x="34" y="98" width="492" height="18" rx="9" fill="rgba(18,20,23,0.08)"/>
  <rect x="34" y="130" width="440" height="18" rx="9" fill="rgba(18,20,23,0.08)"/>
  <g transform="translate(34 184)">
    <rect width="236" height="142" rx="22" fill="rgba(255,255,255,0.82)" stroke="rgba(214,219,230,0.9)"/>
    <rect x="18" y="20" width="160" height="16" rx="8" fill="rgba(18,20,23,0.10)"/>
    <rect x="18" y="48" width="120" height="14" rx="7" fill="rgba(18,20,23,0.08)"/>
    <rect x="18" y="92" width="120" height="32" rx="16" fill="rgba(0,102,204,0.18)"/>
  </g>
  <g transform="translate(290 184)">
    <rect width="236" height="142" rx="22" fill="rgba(255,255,255,0.82)" stroke="rgba(214,219,230,0.9)"/>
    <rect x="18" y="20" width="168" height="16" rx="8" fill="rgba(18,20,23,0.10)"/>
    <rect x="18" y="48" width="132" height="14" rx="7" fill="rgba(18,20,23,0.08)"/>
    <rect x="18" y="92" width="148" height="32" rx="16" fill="rgba(0,102,204,0.12)"/>
  </g>
</svg>
